<svg xmlns="http://www.w3.org/2000/svg" xmlns:svg="http://www.w3.org/2000/svg" id="svg6" width="24" height="24" version="1.1" viewBox="0 0 24 24"><metadata id="metadata12"/><path id="path2" fill="none" d="M0 0h24v24H0zm0 0h24v24H0zm0 0h24v24H0z"/><g id="g846" transform="translate(-29.323308,-1.443609)"><path style="fill:none;fill-opacity:1;fill-rule:evenodd;stroke:#ccc;stroke-width:2.5999999;stroke-miterlimit:4;stroke-dasharray:none;stroke-opacity:1" id="rect8" d="m 33.881584,5.3627791 h 14.883442 c 1.109961,0 2.00354,0.893579 2.00354,2.0035403 V 19.667283 c 0,1.109962 -0.893579,2.003541 -2.00354,2.003541 H 33.881584 c -1.109961,0 -2.00354,-0.893579 -2.00354,-2.003541 V 7.3663194 c 0,-1.1099613 0.893579,-2.0035403 2.00354,-2.0035403 z"/><g style="font-style:normal;font-variant:normal;font-weight:600;font-stretch:normal;font-size:11.69318867px;line-height:1.25;font-family:Montserrat;-inkscape-font-specification:'Montserrat Semi-Bold';text-align:center;text-anchor:middle;opacity:1;fill:#b3b3b3;fill-opacity:1;stroke:none;stroke-width:2.55776978;stroke-miterlimit:4;stroke-dasharray:none;stroke-opacity:0" id="text16" aria-label="&gt;_" transform="scale(0.93475875,1.0697947)"><path style="fill:#b3b3b3;stroke-width:2.55776978" id="path959" d="m 42.197814,9.6511025 v 1.2628645 l -5.39056,2.093081 v -1.216092 l 4.03415,-1.508421 -4.03415,-1.5084217 V 7.5580217 Z"/><path style="fill:#b3b3b3;stroke-width:2.55776978" id="path961" d="m 42.944351,14.375151 h 5.846595 v 0.888682 h -5.846595 z"/></g></g></svg>